<svg width="435" height="239" viewBox="0 0 435 239" fill="none" xmlns="http://www.w3.org/2000/svg">
<g clip-path="url(#clip0_5_77)">
<path d="M172.31 74.37L194.15 89.01H42.62C39.02 88.52 36.25 85.43 36.25 81.69C36.25 77.95 38.99 74.89 42.56 74.37H172.31Z" fill="#E06B01"/>
<path d="M309.95 77.06L308.25 238.42L199.34 159.8H103.39C99.79 159.31 97.02 156.22 97.02 152.48C97.02 148.74 99.76 145.68 103.33 145.16H199.89L200.7 124.84H17.3C13.7 124.35 10.93 121.26 10.93 117.52C10.93 113.78 13.67 110.72 17.24 110.2H201.28L201.92 94.22L262.27 134.67L278.36 108.38L203.33 59.16L205.39 7.35001L309.95 77.06Z" fill="#E06B01"/>
<path d="M278.36 108.38L262.27 134.67L201.92 94.22L202.13 89.01H194.15L172.31 74.37H202.72L203.33 59.16L278.36 108.38Z" fill="#C0621C"/>
<path d="M161.19 42.21L281.7 122.55L309.96 76.93L194.55 0L161.19 42.21Z" fill="#FF8500"/>
<path d="M314.38 76.93L313.46 238.91L430.47 177.7L434.89 19.4L314.38 76.93Z" fill="#FF8500"/>
<path d="M200.68 42.55V57.19H40.08C36.48 56.7 33.71 53.61 33.71 49.87C33.71 46.13 36.45 43.07 40.02 42.55H200.68Z" fill="#FF8500"/>
<path d="M19.99 49.87C19.99 53.91 16.71 57.19 12.67 57.19H7.32C3.27 57.19 0 53.91 0 49.87C0 45.83 3.27 42.55 7.32 42.55C7.41 42.55 7.51 42.55 7.6 42.56L12.67 42.55C16.71 42.55 19.99 45.83 19.99 49.87Z" fill="#FFB987"/>
<path d="M28.56 49.87C28.56 53.91 25.28 57.19 21.24 57.19H15.89C11.84 57.19 8.57001 53.91 8.57001 49.87C8.57001 45.83 11.84 42.55 15.89 42.55C15.98 42.55 16.08 42.55 16.17 42.56L21.24 42.55C25.28 42.55 28.56 45.83 28.56 49.87Z" fill="#FF8500"/>
<path d="M4.65 49.87C5.74905 49.87 6.64001 48.9791 6.64001 47.88C6.64001 46.781 5.74905 45.89 4.65 45.89C3.55096 45.89 2.66 46.781 2.66 47.88C2.66 48.9791 3.55096 49.87 4.65 49.87Z" fill="#F9FCFF"/>
</g>
<defs>
<clipPath id="clip0_5_77">
<rect width="434.89" height="238.91" fill="white"/>
</clipPath>
</defs>
</svg>
