<svg width="1043" height="239" viewBox="0 0 1043 239" fill="none" xmlns="http://www.w3.org/2000/svg">
<g clip-path="url(#clip0_5_77)">
<path d="M172.31 74.37L194.15 89.01H42.62C39.02 88.52 36.25 85.43 36.25 81.69C36.25 77.95 38.99 74.89 42.56 74.37H172.31Z" fill="#E06B01"/>
<path d="M309.95 77.06L308.25 238.42L199.34 159.8H103.39C99.79 159.31 97.02 156.22 97.02 152.48C97.02 148.74 99.76 145.68 103.33 145.16H199.89L200.7 124.84H17.3C13.7 124.35 10.93 121.26 10.93 117.52C10.93 113.78 13.67 110.72 17.24 110.2H201.28L201.92 94.22L262.27 134.67L278.36 108.38L203.33 59.16L205.39 7.35001L309.95 77.06Z" fill="#E06B01"/>
<path d="M278.36 108.38L262.27 134.67L201.92 94.22L202.13 89.01H194.15L172.31 74.37H202.72L203.33 59.16L278.36 108.38Z" fill="#C0621C"/>
<path d="M161.19 42.21L281.7 122.55L309.96 76.93L194.55 0L161.19 42.21Z" fill="#FF8500"/>
<path d="M314.38 76.93L313.46 238.91L430.47 177.7L434.89 19.4L314.38 76.93Z" fill="#FF8500"/>
<path d="M200.68 42.55V57.19H40.08C36.48 56.7 33.71 53.61 33.71 49.87C33.71 46.13 36.45 43.07 40.02 42.55H200.68Z" fill="#FF8500"/>
<path d="M19.99 49.87C19.99 53.91 16.71 57.19 12.67 57.19H7.32C3.27 57.19 0 53.91 0 49.87C0 45.83 3.27 42.55 7.32 42.55C7.41 42.55 7.51 42.55 7.6 42.56L12.67 42.55C16.71 42.55 19.99 45.83 19.99 49.87Z" fill="#FFB987"/>
<path d="M28.56 49.87C28.56 53.91 25.28 57.19 21.24 57.19H15.89C11.84 57.19 8.57001 53.91 8.57001 49.87C8.57001 45.83 11.84 42.55 15.89 42.55C15.98 42.55 16.08 42.55 16.17 42.56L21.24 42.55C25.28 42.55 28.56 45.83 28.56 49.87Z" fill="#FF8500"/>
<path d="M4.65 49.87C5.74905 49.87 6.64001 48.9791 6.64001 47.88C6.64001 46.781 5.74905 45.89 4.65 45.89C3.55096 45.89 2.66 46.781 2.66 47.88C2.66 48.9791 3.55096 49.87 4.65 49.87Z" fill="#F9FCFF"/>
<path d="M786.213 168.646V165.646H798.246C797.663 163.028 796.346 160.867 794.269 159.215C792.191 157.537 789.709 156.723 786.821 156.723C782.691 156.723 779.449 158.299 777.067 161.477L774.331 159.774C775.446 157.766 777.169 156.215 779.449 155.122C781.729 154.029 784.135 153.469 786.669 153.469C791.026 153.469 794.649 154.867 797.486 157.664C800.349 160.46 801.767 163.867 801.767 167.883C801.767 171.697 800.374 174.976 797.613 177.722C794.851 180.467 791.279 181.865 786.947 181.865C784.414 181.865 782.007 181.357 779.702 180.34C777.397 179.323 775.598 177.798 774.331 175.739L777.067 173.934C779.575 177.086 782.818 178.688 786.795 178.688C789.785 178.688 792.369 177.772 794.522 175.967C796.675 174.163 797.917 171.722 798.246 168.722H786.213V168.646Z" fill="black"/>
<path d="M813.725 166.485L822.718 158.325L819.298 157.079L810.077 165.494V154.105H806.606V181.128H810.077V169.612L811.166 168.646L823.554 181.128H828.443L813.725 166.485Z" fill="black"/>
<path d="M853.903 173.883C851.395 177.035 848.178 178.611 844.226 178.611C842.047 178.611 840.122 178.128 838.374 177.188C836.626 176.222 835.258 174.874 834.27 173.146C833.282 171.392 832.775 169.536 832.775 167.578C832.775 165.621 833.206 163.994 834.042 162.469L830.825 161.299C829.786 163.333 829.254 165.494 829.254 167.833C829.254 171.722 830.673 175.027 833.459 177.747C836.271 180.467 839.793 181.814 844.049 181.814C846.835 181.814 849.293 181.281 851.471 180.213C853.625 179.145 855.373 177.62 856.639 175.688L853.903 173.883Z" fill="black"/>
<path d="M880.909 179.552V181.128H884.379V180.823L880.909 179.552ZM861.782 181.128H865.253V173.832L861.782 172.561V181.128Z" fill="black"/>
<path d="M890.611 183.086V190.992H894.082V184.357L890.611 183.086Z" fill="black"/>
<path d="M550.613 134.352H542.101L516.159 73.696L489.813 134.352H481.301L515.349 55.8499H517.046L550.613 134.352Z" fill="black"/>
<path d="M631.73 88.6948H631.705L597.201 76.0856H597.175C593.451 77.2804 590.006 79.2125 586.839 81.8818C581.241 86.6356 577.795 92.8893 576.478 100.643H566.75V76.2636H559.302V134.327H566.75V108.015H576.478C577.289 116.481 580.582 123.243 586.307 128.276C592.033 133.31 598.746 135.827 606.397 135.827C614.985 135.827 622.154 132.852 627.905 126.853C633.655 120.879 636.543 113.761 636.543 105.448C636.543 99.2448 634.947 93.652 631.73 88.6948ZM622.509 121.972C618.202 126.471 612.831 128.734 606.397 128.734C599.962 128.734 594.465 126.471 590.183 121.972C585.902 117.472 583.774 112.032 583.774 105.626C583.774 99.2193 586.003 93.652 590.487 89.0252C594.946 84.3985 600.266 82.0851 606.397 82.0851C612.527 82.0851 617.797 84.3985 622.281 89.0252C626.739 93.652 628.969 99.1685 628.969 105.626C628.969 112.083 626.815 117.472 622.509 121.972Z" fill="black"/>
<path d="M697.597 112.718C696.558 116.15 694.734 119.226 692.099 121.972C687.793 126.471 682.397 128.734 675.911 128.734C669.426 128.734 664.106 126.471 659.799 121.972C655.467 117.472 653.314 112.032 653.314 105.626C653.314 102.575 653.821 99.7278 654.834 97.1093L644.245 93.2452C644.219 93.7028 644.219 94.1604 644.219 94.618C644.219 108.854 647.285 119.277 653.441 125.912C659.571 132.522 667.07 135.827 675.937 135.827C684.803 135.827 691.745 132.852 697.495 126.853C700.839 123.37 703.221 119.506 704.614 115.26L697.597 112.718Z" fill="black"/>
<path d="M717.686 120.04L711.15 134.327H719.13L724.501 122.506L717.686 120.04Z" fill="black"/>
<path d="M706.134 105.448C706.134 108.93 705.627 112.184 704.614 115.26L697.597 112.718C698.255 110.507 698.585 108.142 698.585 105.626C698.585 99.1685 696.33 93.652 691.871 89.0253C687.387 84.3985 682.067 82.0851 675.911 82.0851C669.755 82.0851 664.511 84.3985 660.027 89.0253C657.671 91.4657 655.949 94.1604 654.834 97.1093L644.245 93.2453C644.321 83.9918 645.461 76.95 647.614 72.069C649.869 66.9592 652.453 63.2985 655.366 61.0614C658.279 58.7989 662.029 57.0448 666.665 55.7737C671.275 54.4772 679.914 53.6891 692.606 53.3586C696.507 53.2569 699.801 53.0027 702.461 52.6214V59.7649C698.914 60.375 692.809 60.8072 684.17 61.0614C677.938 61.2648 673.099 61.6715 669.705 62.3071C666.31 62.9172 663.371 64.112 660.838 65.8915C658.305 67.6456 656.202 70.3149 654.479 73.8739C652.757 77.4584 651.667 81.4496 651.237 85.873L650.502 94.0333C652.529 87.3728 655.847 82.5173 660.483 79.4159C665.119 76.3144 670.262 74.7637 675.911 74.7637C684.525 74.7637 691.694 77.7889 697.47 83.8392C703.246 89.8896 706.134 97.1094 706.134 105.448Z" fill="black"/>
<path d="M765.642 134.327H757.713L738.333 92.0505L724.501 122.506L717.686 120.04L737.699 76.2636H739.017L765.642 134.327Z" fill="black"/>
<path d="M824.289 76.2636V134.327H816.841V91.7708L774.661 134.327H773.749V76.2636H781.197V119.226L823.681 76.2636H824.289Z" fill="black"/>
<path d="M1009.65 173.883L1012.41 175.688C1011.12 177.62 1009.4 179.145 1007.22 180.213C1005.04 181.281 1002.58 181.814 999.823 181.814C995.567 181.814 992.021 180.467 989.234 177.747C986.422 175.027 985.029 171.722 985.029 167.832C985.029 165.214 985.662 162.799 986.979 160.562C988.297 158.299 990.095 156.571 992.401 155.3C994.681 154.054 997.239 153.418 1000.08 153.418C1001.88 153.418 1003.57 153.698 1005.24 154.232C1006.89 154.791 1008.31 155.503 1009.45 156.367C1010.62 157.257 1011.6 158.376 1012.41 159.723L1009.65 161.426C1007.3 158.274 1004.05 156.698 999.95 156.698C996.657 156.698 993.946 157.74 991.767 159.876C989.614 161.986 988.525 164.553 988.525 167.578C988.525 169.536 989.031 171.392 990.019 173.146C991.033 174.874 992.401 176.222 994.123 177.188C995.871 178.128 997.822 178.611 999.975 178.611C1003.93 178.611 1007.14 177.035 1009.65 173.883Z" fill="black"/>
<path d="M978.391 173.883L981.153 175.688C979.861 177.62 978.138 179.145 975.959 180.213C973.806 181.281 971.323 181.814 968.562 181.814C964.306 181.814 960.759 180.467 957.973 177.747C955.161 175.027 953.767 171.722 953.767 167.832C953.767 165.214 954.426 162.799 955.718 160.562C957.035 158.299 958.834 156.571 961.139 155.3C963.419 154.054 965.978 153.418 968.815 153.418C970.614 153.418 972.337 153.698 973.983 154.232C975.63 154.791 977.049 155.503 978.214 156.367C979.354 157.257 980.342 158.376 981.153 159.723L978.391 161.426C976.035 158.274 972.793 156.698 968.689 156.698C965.421 156.698 962.685 157.74 960.531 159.876C958.353 161.986 957.263 164.553 957.263 167.578C957.263 169.536 957.77 171.392 958.758 173.146C959.771 174.874 961.139 176.222 962.862 177.188C964.61 178.128 966.561 178.611 968.714 178.611C972.666 178.611 975.909 177.035 978.391 173.883Z" fill="black"/>
<path d="M943.33 175.993C942.418 176.781 941.304 177.416 940.012 177.899C938.72 178.382 937.402 178.611 936.009 178.611C933.171 178.611 930.79 177.62 928.865 175.612C926.939 173.603 925.926 171.036 925.875 167.883H950.094C950.043 164.197 949.055 161.121 947.105 158.655C944.369 155.172 940.695 153.418 936.11 153.418C931.525 153.418 928.105 155.122 925.445 158.528C923.342 161.223 922.303 164.273 922.303 167.68C922.303 171.341 923.545 174.595 926.002 177.493C928.485 180.365 931.93 181.814 936.313 181.814C938.289 181.814 940.062 181.509 941.633 180.925C943.203 180.315 944.622 179.425 945.864 178.281C947.13 177.111 948.245 175.586 949.182 173.705L946.269 172.154C945.205 173.934 944.242 175.205 943.33 175.993ZM929.346 159.291C931.246 157.588 933.526 156.749 936.161 156.749C937.757 156.749 939.302 157.079 940.746 157.766C942.215 158.452 943.381 159.342 944.268 160.435C945.129 161.553 945.813 163.028 946.269 164.884H926.205C926.914 162.392 927.978 160.536 929.346 159.291Z" fill="black"/>
<path d="M914.577 157.562C911.841 154.791 908.573 153.418 904.773 153.418C902.569 153.418 900.593 153.901 898.794 154.842C897.021 155.783 895.45 157.181 894.082 159.087V154.105H890.611V183.085L894.082 184.357V176.476C895.526 178.255 897.147 179.577 898.946 180.467C900.745 181.382 902.721 181.814 904.849 181.814C908.674 181.814 911.917 180.442 914.602 177.671C917.313 174.9 918.655 171.519 918.655 167.553C918.655 163.587 917.287 160.333 914.577 157.562ZM913.69 173.12C912.702 174.849 911.41 176.196 909.763 177.162C908.142 178.128 906.394 178.611 904.519 178.611C902.645 178.611 900.821 178.128 899.123 177.188C897.426 176.222 896.109 174.925 895.197 173.273C894.285 171.646 893.829 169.815 893.829 167.756C893.829 164.629 894.867 162.011 896.919 159.926C898.946 157.816 901.479 156.774 904.469 156.774C906.394 156.774 908.167 157.232 909.814 158.198C911.435 159.138 912.727 160.486 913.69 162.189C914.653 163.918 915.134 165.748 915.134 167.655C915.134 169.561 914.653 171.366 913.69 173.12Z" fill="black"/>
<path d="M884.379 154.105V180.823L880.909 179.552V157.384H865.253V173.832L861.782 172.561V154.105H884.379Z" fill="black"/>
<path d="M856.639 159.723L853.903 161.426C851.522 158.274 848.305 156.698 844.201 156.698C840.907 156.698 838.197 157.74 836.018 159.876C835.207 160.664 834.549 161.528 834.042 162.443L830.825 161.299C830.951 161.045 831.078 160.816 831.23 160.562C832.547 158.299 834.346 156.571 836.626 155.3C838.931 154.054 841.49 153.418 844.327 153.418C846.101 153.418 847.823 153.698 849.495 154.232C851.142 154.791 852.561 155.503 853.701 156.367C854.866 157.257 855.829 158.376 856.639 159.723Z" fill="black"/>
<path d="M827.379 154.105L822.718 158.325L819.298 157.079L822.541 154.105H827.379Z" fill="black"/>
<path d="M631.705 88.6948L597.201 76.0856C600.063 75.1958 603.103 74.7637 606.346 74.7637C614.934 74.7637 622.103 77.7889 627.879 83.8392C629.349 85.3899 630.641 87.0169 631.705 88.6948Z" fill="black"/>
<path d="M949.055 84.4748C943.203 78.0177 935.806 74.7637 926.889 74.7637C917.971 74.7637 910.523 78.0176 904.671 84.5256C899.326 90.4489 896.666 97.4144 896.666 105.448C896.666 113.481 899.478 120.65 905.127 126.726C910.751 132.801 917.997 135.827 926.889 135.827C935.781 135.827 942.975 132.801 948.599 126.726C954.223 120.65 957.035 113.583 957.035 105.448C957.035 97.3127 954.375 90.398 949.055 84.4748ZM946.446 117.37C944.419 120.98 941.683 123.802 938.238 125.76C934.767 127.742 930.993 128.734 926.863 128.734C922.734 128.734 918.934 127.742 915.489 125.76C912.043 123.802 909.307 120.98 907.281 117.37C905.229 113.735 904.241 109.82 904.241 105.626C904.241 99.1177 906.445 93.5503 910.903 88.9744C915.337 84.3731 920.657 82.0851 926.863 82.0851C933.07 82.0851 938.339 84.3731 942.798 88.9744C947.257 93.5503 949.486 99.1177 949.486 105.626C949.486 109.82 948.473 113.735 946.446 117.37Z" fill="black"/>
<path d="M886.178 76.2636V134.327H878.73V106.363H845.062V134.327H837.614V76.2636H845.062V99.3211H878.73V76.2636H886.178Z" fill="black"/>
<path d="M945.711 89.5337C947.446 89.5337 948.853 88.1224 948.853 86.3814C948.853 84.6405 947.446 83.2291 945.711 83.2291C943.977 83.2291 942.57 84.6405 942.57 86.3814C942.57 88.1224 943.977 89.5337 945.711 89.5337Z" fill="white"/>
</g>
<defs>
<clipPath id="clip0_5_77">
<rect width="1042.89" height="238.91" fill="white"/>
</clipPath>
</defs>
</svg>
